#!OML:ASF E:\Style4\Style4.ASF
:FULLY-SPECIFIED
:DEGREES
1661
root -0.716512 16.854 -2.20308 5.73709 11.3091 2.06238
lowerback 15.6104 3.04687 0.0918192
upperback 11.1002 4.08368 0.35495
thorax 3.05042 2.08244 -0.188659
lowerneck -3.51403 -3.21837 -5.07188
upperneck -11.8221 -3.87993 4.47269
head -3.00738 -1.84584 2.40226
rclavicle 0 1.35174e-014
rhumerus 41.1635 37.9771 6.53706
rradius 112.879
rwrist -107.042
rhand -18.6729 21.1916
rfingers 7.12502
rthumb 7.6209 -8.65108
lclavicle 0 1.35174e-014
lhumerus 51.5148 -37.5044 -8.77145
lradius 116.331
lwrist 95.6444
lhand -0.0447449 24.0165
lfingers 7.12502
lthumb 25.5475 52.3234
rfemur -35.1458 -7.46484 19.6724
rtibia 54.3647
rfoot -24.0059 -17.4826
rtoes -8.98981
lfemur -37.657 -2.26229 -18.3482
ltibia 50.1055
lfoot -18.0478 2.69926
ltoes -11.1352
1662
root -0.712544 16.8838 -2.17861 5.73337 11.3983 2.03124
lowerback 15.3738 3.02178 0.227783
upperback 10.9803 4.06699 0.313908
thorax 3.05591 2.08236 -0.296154
lowerneck -3.52703 -3.22493 -4.98986
upperneck -11.6833 -3.89084 4.47459
head -2.95776 -1.85571 2.38411
rclavicle 1.23246e-014 -2.06736e-014
rhumerus 40.7359 38.1822 6.47632
rradius 113.759
rwrist -107.314
rhand -18.8122 20.8593
rfingers 7.12502
rthumb 7.48639 -8.98823
lclavicle 1.23246e-014 -2.06736e-014
lhumerus 51.5093 -37.6827 -9.10108
lradius 117.088
lwrist 95.7077
lhand -0.297295 23.9817
lfingers 7.12502
lthumb 25.3056 52.323
rfemur -34.703 -7.50833 19.6976
rtibia 53.8055
rfoot -23.89 -17.5234
rtoes -9.23707
lfemur -37.2692 -2.336 -18.3155
ltibia 49.5863
lfoot -17.9701 2.70925
ltoes -11.2529
1663
root -0.712185 16.9164 -2.15574 5.66374 11.5342 2.0098
lowerback 15.244 2.99561 0.23368
upperback 10.8679 4.03346 0.339986
thorax 2.99957 2.06426 -0.265216
lowerneck -3.5007 -3.22539 -4.9744
upperneck -11.6021 -3.88902 4.53392
head -2.93401 -1.85802 2.39983
rclavicle 4.05521e-014 -3.10104e-014
rhumerus 40.4945 38.3189 6.6101
rradius 114.605
rwrist -107.617
rhand -18.9704 20.766
rfingers 7.12502
rthumb 7.33372 -9.08694
lclavicle 4.05521e-014 -3.10104e-014
lhumerus 51.43 -37.8753 -9.3086
lradius 117.805
lwrist 95.771
lhand -0.375823 24.2059
lfingers 7.12502
lthumb 25.2304 52.5579
rfemur -34.1706 -7.53768 19.7037
rtibia 53.211
rfoot -23.7281 -17.5779
rtoes -9.31064
lfemur -36.8118 -2.44906 -18.2757
ltibia 49.058
lfoot -17.8707 2.70983
ltoes -11.2139
1664
root -0.709362 16.9514 -2.12804 5.60637 11.5848 1.91226
lowerback 15.1185 3.00542 0.162259
upperback 10.6898 4.03623 0.454305
thorax 2.85822 2.0561 -0.10672
lowerneck -3.54206 -3.22785 -4.98418
upperneck -11.3979 -3.89687 4.50438
head -2.85656 -1.8618 2.38511
rclavicle -4.6118e-014 1.82882e-014
rhumerus 40.3907 38.4683 6.94609
rradius 115.455
rwrist -107.863
rhand -20.767 21.9854
rfingers 7.12502
rthumb 5.59927 -7.92059
lclavicle -4.6118e-014 1.82882e-014
lhumerus 51.255 -38.0876 -9.36387
lradius 118.587
lwrist 95.9935
lhand -0.739879 24.341
lfingers 7.12502
lthumb 24.8815 52.7416
rfemur -33.6596 -7.50936 19.7883
rtibia 52.6028
rfoot -23.6226 -17.5718
rtoes -9.2854
lfemur -36.3324 -2.48678 -18.1595
ltibia 48.5118
lfoot -17.7229 2.72807
ltoes -11.2106
1665
root -0.703026 16.9843 -2.09933 5.58099 11.6286 1.83614
lowerback 15.2001 2.99913 -0.0430301
upperback 10.3293 4.00037 0.625699
thorax 2.39856 2.01926 0.171376
lowerneck -3.51791 -3.17261 -5.08276
upperneck -11.0092 -3.83682 4.43112
head -2.73165 -1.82898 2.36854
rclavicle 4.13472e-014 -3.18055e-015
rhumerus 40.447 38.806 7.34202
rradius 116.287
rwrist -108.045
rhand -20.151 21.3746
rfingers 7.12502
rthumb 6.19404 -8.51487
lclavicle 4.13472e-014 -3.18055e-015
lhumerus 50.8037 -38.4786 -9.2336
lradius 119.443
lwrist 96.3444
lhand -1.28984 24.1302
lfingers 7.12502
lthumb 24.3544 52.6027
rfemur -33.1735 -7.51174 19.8377
rtibia 51.9962
rfoot -23.5667 -17.4954
rtoes -8.97811
lfemur -35.8791 -2.52867 -18.0779
ltibia 47.9534
lfoot -17.6216 2.69198
ltoes -11.0242
1666
root -0.69761 17.0182 -2.07062 5.47359 11.7033 1.89182
lowerback 15.1803 2.97217 -0.086591
upperback 10.1866 3.95978 0.601716
thorax 2.25382 1.99717 0.171312
lowerneck -3.58049 -3.15833 -5.12965
upperneck -10.7579 -3.81097 4.52832
head -2.6345 -1.81814 2.40144
rclavicle 4.77083e-015 -1.19271e-014
rhumerus 40.1652 38.907 7.2622
rradius 117.073
rwrist -108.308
rhand -20.3651 21.7648
rfingers 7.12502
rthumb 5.98738 -8.13063
lclavicle 4.77083e-015 -1.19271e-014
lhumerus 50.612 -38.4052 -9.39193
lradius 120.269
lwrist 96.8113
lhand -1.69584 23.85
lfingers 7.12502
lthumb 23.9651 52.3742
rfemur -32.5698 -7.5598 19.7328
rtibia 51.3918
rfoot -23.4876 -17.4753
rtoes -8.88801
lfemur -35.2905 -2.6541 -18.14
ltibia 47.3625
lfoot -17.6132 2.78888
ltoes -11.1791
1667
root -0.694083 17.0508 -2.0411 5.39249 11.7525 1.93443
lowerback 15.069 2.97601 -0.168056
upperback 10.0845 3.9555 0.623832
thorax 2.195 1.99005 0.242345
lowerneck -3.67661 -3.18085 -5.20488
upperneck -10.5758 -3.83688 4.55833
head -2.55295 -1.82938 2.41797
rclavicle 2.10712e-014 -5.56597e-015
rhumerus 39.8469 38.8808 7.26114
rradius 117.946
rwrist -108.791
rhand -20.6012 21.976
rfingers 7.12502
rthumb 5.75934 -7.92574
lclavicle 2.10712e-014 -5.56597e-015
lhumerus 50.5018 -38.2237 -9.46579
lradius 121
lwrist 97.196
lhand -2.09509 23.5436
lfingers 7.12502
lthumb 23.5822 52.1177
rfemur -32.0054 -7.58923 19.6654
rtibia 50.7662
rfoot -23.2394 -17.5645
rtoes -9.38039
lfemur -34.7242 -2.71908 -18.1845
ltibia 46.7535
lfoot -17.5414 2.8086
ltoes -11.0097
1668
root -0.686053 17.0849 -2.01012 5.44092 11.7506 1.94172
lowerback 14.7668 2.99374 -0.164235
upperback 9.97918 3.97964 0.627042
thorax 2.24005 2.00147 0.253095
lowerneck -3.77073 -3.20929 -5.21209
upperneck -10.4717 -3.87207 4.55837
head -2.49907 -1.84644 2.41422
rclavicle -1.31198e-014 -3.97569e-015
rhumerus 39.5036 38.6601 7.20656
rradius 118.712
rwrist -109.209
rhand -21.0061 22.1603
rfingers 7.12502
rthumb 5.36848 -7.75172
lclavicle -1.31198e-014 -3.97569e-015
lhumerus 50.3733 -37.9613 -9.4343
lradius 121.699
lwrist 97.5824
lhand -2.58974 23.5656
lfingers 7.12502
lthumb 23.1077 52.1999
rfemur -31.5693 -7.55457 19.6255
rtibia 50.0844
rfoot -23.0628 -17.5407
rtoes -9.25554
lfemur -34.3033 -2.7631 -18.2008
ltibia 46.126
lfoot -17.3938 2.89902
ltoes -11.123
1669
root -0.676543 17.1212 -1.97901 5.46407 11.7348 1.938
lowerback 14.4843 3.01273 -0.126846
upperback 9.86493 4.00897 0.613563
thorax 2.26912 2.0176 0.225952
lowerneck -3.82906 -3.23673 -5.16388
upperneck -10.3221 -3.91099 4.53997
head -2.4373 -1.86771 2.3941
rclavicle 2.34566e-014 -2.14687e-014
rhumerus 39.1179 38.5567 7.05411
rradius 119.323
rwrist -109.192
rhand -21.0586 22.1938
rfingers 7.12502
rthumb 5.3178 -7.71951
lclavicle 2.34566e-014 -2.14687e-014
lhumerus 50.2149 -37.6804 -9.40598
lradius 122.392
lwrist 97.9216
lhand -2.63581 23.9641
lfingers 7.12502
lthumb 23.0634 52.6039
rfemur -31.0925 -7.48542 19.5665
rtibia 49.3476
rfoot -22.8699 -17.4929
rtoes -8.99109
lfemur -33.8365 -2.8079 -18.2162
ltibia 45.497
lfoot -17.2646 2.98721
ltoes -11.2765
1670
root -0.670053 17.1553 -1.94562 5.43473 11.7335 1.89467
lowerback 14.2308 3.01601 -0.111256
upperback 9.77022 4.01526 0.624651
thorax 2.30113 2.02049 0.238553
lowerneck -3.93 -3.23916 -5.12547
upperneck -10.1438 -3.91478 4.51727
head -2.36036 -1.87066 2.37257
rclavicle -3.22031e-014 3.33958e-014
rhumerus 38.7507 38.4038 6.92349
rradius 120.01
rwrist -109.132
rhand -20.9973 22.2532
rfingers 7.12502
rthumb 5.377 -7.65859
lclavicle -3.22031e-014 3.33958e-014
lhumerus 49.888 -37.4256 -9.34759
lradius 123.129
lwrist 97.9752
lhand -2.76926 23.9424
lfingers 7.12502
lthumb 22.9354 52.5982
rfemur -30.5775 -7.42265 19.5546
rtibia 48.6043
rfoot -22.5807 -17.5674
rtoes -9.39277
lfemur -33.304 -2.84686 -18.1739
ltibia 44.8569
lfoot -17.1055 2.88624
ltoes -10.5421
